Coordinates
version=1
nRows=11
nColumns=40
inDegrees=yes

Units are S.I. units (second, meters, Newtons, ...)
Angles are in degrees.

endheader
time	pelvis_tilt	pelvis_list	pelvis_rotation	pelvis_tx	pelvis_ty	pelvis_tz	hip_flexion_r	hip_adduction_r	hip_rotation_r	knee_angle_r	knee_angle_r_beta	ankle_angle_r	subtalar_angle_r	mtp_angle_r	hip_flexion_l	hip_adduction_l	hip_rotation_l	knee_angle_l	knee_angle_l_beta	ankle_angle_l	subtalar_angle_l	mtp_angle_l	lumbar_extension	lumbar_bending	lumbar_rotation	arm_flex_r	arm_add_r	arm_rot_r	elbow_flex_r	pro_sup_r	wrist_flex_r	wrist_dev_r	arm_flex_l	arm_add_l	arm_rot_l	elbow_flex_l	pro_sup_l	wrist_flex_l	wrist_dev_l
      0.67000000	     -2.45046438	     -0.63291536	      8.93249330	     -0.00212990	      0.86886057	      1.49790507	     31.75855670	     -4.72184664	    -15.48722090	    -26.66272727	     -0.46535238	     -0.66408477	     -8.87565503	     12.81295332	     -6.17255104	      3.17351745	      2.93075925	    -34.51029285	     -0.60231824	      5.57901448	      9.91354177	     -5.10957827	     -4.66790161	     -1.63048108	    -14.31628904	    -18.78347924	     -7.38020197	    -20.73291923	     17.66743430	     89.95437384	      0.00000000	      0.00000000	     -1.34466202	     13.49020475	     20.30972461	     82.70104309	     89.95437384	      0.00000000	      0.00000000
      0.68000000	     -2.50489267	     -0.89334397	      8.65171665	      0.01285657	      0.86866620	      1.49924866	     31.98829327	     -4.22111964	    -14.76152552	    -28.37912090	     -0.49530910	     -1.37370695	    -10.08749345	     12.72623197	     -5.78698386	      3.70651852	      3.10603107	    -36.32676928	     -0.63402173	      2.51940115	     11.25179174	     -4.60010887	     -4.27288646	     -1.24029541	    -13.93243159	    -18.58176944	     -7.49399078	    -20.86359304	     17.47550088	     89.95437384	      0.00000000	      0.00000000	     -1.98726170	     13.44406967	     20.34504059	     82.53892061	     89.95437384	      0.00000000	      0.00000000
      0.69000000	     -2.56353359	     -1.16708798	      8.38357072	      0.02744795	      0.86885495	      1.50054735	     32.02404648	     -3.50379778	    -13.48627771	    -29.73917020	     -0.51904644	     -1.71515533	    -11.42029964	     12.75119327	     -5.16907677	      4.14680150	      2.83138061	    -38.34749291	     -0.66929001	     -0.32358932	     12.20233185	     -4.16904287	     -3.94846306	     -0.82017673	    -13.54181541	    -18.31180622	     -7.59611561	    -20.92560234	     17.48801361	     89.95437384	      0.00000000	      0.00000000	     -2.51348054	     13.27376438	     20.44406891	     82.10215287	     89.95437384	      0.00000000	      0.00000000
      0.70000000	     -2.32091992	     -1.28780882	      8.09108869	      0.04236197	      0.86961255	      1.50164849	     31.48006527	     -2.95204024	    -12.72763552	    -30.94579526	     -0.54010602	     -1.16296110	    -12.03847968	     12.51137313	     -4.77408800	      4.54286035	      2.87235266	    -40.40848277	     -0.70526107	     -3.76361671	     12.56995501	     -3.66192746	     -3.98238591	     -0.51378892	    -13.06328311	    -18.05487035	     -7.71149593	    -20.55627869	     17.56221017	     89.95437384	      0.00000000	      0.00000000	     -3.04720083	     13.13331399	     20.37862208	     81.55181051	     89.95437384	      0.00000000	      0.00000000
      0.71000000	     -2.26513955	     -1.64572109	      7.74837707	      0.05682677	      0.87031050	      1.50312732	     30.87617071	     -1.89921289	    -11.58001432	    -31.51328949	     -0.55001066	     -0.97358111	    -13.27099107	     12.88508667	     -3.79951723	      5.21327827	      2.96882533	    -42.73043909	     -0.74578685	     -8.00435779	     13.06681915	     -2.89102796	     -3.84139774	     -0.01704665	    -12.62108665	    -17.65398633	     -7.87612167	    -20.10103597	     17.73833168	     89.95437384	      0.00000000	      0.00000000	     -3.68166385	     12.93804340	     20.48079761	     80.92427148	     89.95437384	      0.00000000	      0.00000000
      0.72000000	     -2.01741265	     -1.86381140	      7.59326173	      0.07140138	      0.87133942	      1.50432046	     29.93633870	     -1.26678806	    -11.22821692	    -32.11645924	     -0.56053796	      0.18783002	    -13.29337142	     12.59380367	     -2.94986535	      5.68154306	      2.62479762	    -45.03249266	     -0.78596527	    -12.25950882	     13.46211599	     -2.23326826	     -3.93512554	      0.33483274	    -12.28099255	    -17.22103330	     -7.96246421	    -19.84994118	     17.96321855	     89.95437384	      0.00000000	      0.00000000	     -4.30363673	     12.91298153	     20.31717314	     80.11675811	     89.95437384	      0.00000000	      0.00000000
      0.73000000	     -1.81629434	     -2.07200034	      7.39417442	      0.08532107	      0.87247766	      1.50552564	     28.96449374	     -0.67266761	    -10.93201195	    -32.53607188	     -0.56786158	      1.29922514	    -13.27612073	     12.34393291	     -1.83898515	      6.03473211	      2.13596893	    -47.52592997	     -0.82948396	    -15.53736826	     13.88811709	     -1.68902435	     -4.04789182	      0.65980070	    -11.89934190	    -16.65699863	     -8.03903174	    -19.48997108	     18.21291492	     89.95437384	      0.00000000	      0.00000000	     -4.79562241	     12.83540080	     20.13054807	     79.08826439	     89.95437384	      0.00000000	      0.00000000
      0.74000000	     -1.78838112	     -2.17203670	      7.16170913	      0.09861512	      0.87350100	      1.50641701	     28.15779986	     -0.29792879	    -10.73203292	    -32.91897772	     -0.57454455	      2.28625326	    -13.05150193	     12.01365633	     -0.35458096	      6.07221113	      1.50870849	    -50.20674505	     -0.87627301	    -17.74262101	     13.71519059	     -1.33506540	     -4.06274080	      0.86955849	    -11.46553482	    -16.07152641	     -8.13239237	    -19.14372112	     18.72834063	     89.95437384	      0.00000000	      0.00000000	     -5.20407644	     12.69574258	     19.92076714	     77.83781898	     89.95437384	      0.00000000	      0.00000000
      0.75000000	     -2.28529896	     -2.38243450	      6.91221295	      0.11117151	      0.87360947	      1.50738996	     27.99450118	      0.03294411	    -10.92182791	    -33.29543055	     -0.58111489	      3.19599547	    -12.64667972	     11.89196758	      2.08445514	      6.21209978	      1.11106614	    -53.36145669	     -0.93133311	    -18.47529909	     13.59140299	     -0.84020477	     -3.53613845	      1.10747555	    -10.95446237	    -15.53559596	     -8.23484443	    -18.88623482	     19.39141387	     89.95437384	      0.00000000	      0.00000000	     -5.59522347	     12.44165902	     19.75859411	     76.51671703	     89.95437384	      0.00000000	      0.00000000
      0.76000000	     -2.04636467	     -2.01776090	      6.49340083	      0.12374620	      0.87519124	      1.50795854	     26.81118478	     -0.15960412	    -11.00883804	    -33.38992662	     -0.58276416	      3.73987963	    -12.20633070	     11.49734220	      3.33021336	      5.72731153	      1.13796760	    -55.76654273	     -0.97330978	    -18.34561619	     13.12872035	     -0.84210506	     -3.98116356	      0.83178091	    -10.26177738	    -14.77988044	     -8.26390188	    -18.56424690	     20.04239464	     89.95437384	      0.00000000	      0.00000000	     -5.80716034	     12.16886717	     19.66910630	     75.09660082	     89.95437384	      0.00000000	      0.00000000
      0.77000000	     -2.60132796	     -2.48043709	      6.42814576	      0.13584106	      0.87528001	      1.50871062	     26.48423752	      0.34344455	    -11.48953129	    -33.32171762	     -0.58157368	      4.98883450	    -11.46887951	     10.98344273	      6.02762418	      6.20763330	      1.12691839	    -58.74790667	     -1.02534440	    -17.06003204	     13.78846693	     -0.69082458	     -3.36724814	      1.35188007	     -9.83431616	    -14.32193808	     -8.41045080	    -18.00049745	     21.04330735	     89.95437384	      0.00000000	      0.00000000	     -6.05791787	     12.03221775	     19.20134412	     73.25304715	     89.95437384	      0.00000000	      0.00000000
